<svg xmlns="http://www.w3.org/2000/svg" viewBox="0 0 512 512">
  <defs>
    <linearGradient id="bg" x1="0" x2="1" y1="0" y2="1">
      <stop offset="0%" stop-color="#0d1633"/>
      <stop offset="100%" stop-color="#12244c"/>
    </linearGradient>
    <linearGradient id="accent" x1="0" x2="1" y1="0" y2="1">
      <stop offset="0%" stop-color="#44d8f2"/>
      <stop offset="100%" stop-color="#2cc3e9"/>
    </linearGradient>
    <linearGradient id="warm" x1="0" x2="1" y1="0" y2="1">
      <stop offset="0%" stop-color="#ffc15a"/>
      <stop offset="100%" stop-color="#ff9e3d"/>
    </linearGradient>
  </defs>

  <rect x="16" y="16" width="480" height="480" rx="88" fill="url(#bg)"/>
  <rect x="16" y="16" width="480" height="480" rx="88" fill="none" stroke="#2b4a86" stroke-width="10"/>

  <g transform="translate(100 96)">
    <rect x="0" y="0" width="136" height="320" rx="20" fill="url(#accent)"/>
    <rect x="176" y="0" width="136" height="320" rx="20" fill="url(#accent)"/>
    <rect x="112" y="128" width="88" height="64" rx="16" fill="url(#warm)"/>

    <rect x="20" y="24" width="96" height="32" rx="10" fill="#0b1228" opacity="0.22"/>
    <rect x="196" y="24" width="96" height="32" rx="10" fill="#0b1228" opacity="0.22"/>
  </g>

  <circle cx="408" cy="406" r="56" fill="#0b1228" opacity="0.5"/>
  <path d="M376 414 L404 374 L404 396 L436 396 L408 438 L408 414 Z" fill="url(#warm)"/>
</svg>
